<svg width="19" height="20" viewBox="0 0 19 20" fill="none" xmlns="http://www.w3.org/2000/svg">
<path d="M17.4117 10.8606C17.2852 5.39274 14.4787 2.08325 9.5 2.08325C4.26131 2.08325 0.791654 5.73552 0.791654 11.2499C0.791654 11.3378 0.804754 11.4224 0.828689 11.5019C0.314057 12.0946 0 12.8836 0 13.7499C0 15.591 1.41765 17.0833 3.16665 17.0833C3.21356 17.0833 3.25924 17.0781 3.30388 17.0699C3.83266 17.5945 4.54475 17.9166 5.32887 17.9166H5.79277C6.52847 17.9166 7.12515 17.2885 7.12515 16.5141V10.9858C7.12515 10.2113 6.52847 9.58325 5.79277 9.58325H5.32887C4.54475 9.58325 3.83266 9.90536 3.30388 10.4299C3.25924 10.4217 3.21356 10.4166 3.16665 10.4166C2.90214 10.4166 2.64542 10.4512 2.39983 10.5155C2.68067 6.34868 5.37321 3.74993 9.5 3.74993C13.4169 3.74993 15.57 6.11286 15.8104 10.4178C15.7716 10.419 15.7334 10.4231 15.6961 10.4299C15.1673 9.90536 14.4553 9.58325 13.6711 9.58325H13.2072C12.4715 9.58325 11.8749 10.2113 11.8749 10.9858V16.5141C11.8749 17.2885 12.4715 17.9166 13.2072 17.9166H13.6711C14.4553 17.9166 15.1673 17.5945 15.6961 17.0699C15.7408 17.0781 15.7864 17.0833 15.8333 17.0833C17.5823 17.0833 19 15.591 19 13.7499C19 12.5141 18.3607 11.4362 17.4117 10.8606ZM2.375 15.1937C1.90171 14.9056 1.58335 14.3669 1.58335 13.7499C1.58335 13.1329 1.90171 12.5943 2.375 12.3062V15.1937ZM3.95849 12.6924C3.95849 11.8957 4.5718 11.2499 5.32887 11.2499H5.54184V16.2499H5.32887C4.5718 16.2499 3.95849 15.6042 3.95849 14.8074V12.6924ZM15.0415 14.8074C15.0415 15.6042 14.4282 16.2499 13.6711 16.2499H13.4582V11.2499H13.6711C14.4282 11.2499 15.0415 11.8957 15.0415 12.6924V14.8074ZM16.625 15.1937V12.3062C17.0983 12.5943 17.4167 13.1329 17.4167 13.7499C17.4167 14.3669 17.0983 14.9056 16.625 15.1937Z" fill="#C4C4C4"/>
</svg>
