<svg width="21" height="22" viewBox="0 0 21 22" fill="none" xmlns="http://www.w3.org/2000/svg">
<path fill-rule="evenodd" clip-rule="evenodd" d="M11.375 16.5001H13.125C13.3571 16.5001 13.5796 16.5967 13.7437 16.7686C13.9078 16.9405 14 17.1736 14 17.4167C14 17.6599 13.9078 17.893 13.7437 18.0649C13.5796 18.2368 13.3571 18.3334 13.125 18.3334H7.875C7.64294 18.3334 7.42038 18.2368 7.25628 18.0649C7.09219 17.893 7 17.6599 7 17.4167C7 17.1736 7.09219 16.9405 7.25628 16.7686C7.42038 16.5967 7.64294 16.5001 7.875 16.5001H9.625V14.6667H3.5C3.03587 14.6667 2.59075 14.4736 2.26256 14.1298C1.93437 13.786 1.75 13.3196 1.75 12.8334V5.50008C1.75 5.01385 1.93437 4.54754 2.26256 4.20372C2.59075 3.8599 3.03587 3.66675 3.5 3.66675H17.5C17.9641 3.66675 18.4093 3.8599 18.7374 4.20372C19.0656 4.54754 19.25 5.01385 19.25 5.50008V12.8334C19.25 13.3196 19.0656 13.786 18.7374 14.1298C18.4093 14.4736 17.9641 14.6667 17.5 14.6667H11.375V16.5001ZM3.5 5.50008V12.8334H17.5V5.50008H3.5Z" fill="#C4C4C4"/>
</svg>
