<svg width="28" height="24" viewBox="0 0 28 24" fill="none" xmlns="http://www.w3.org/2000/svg">
<path d="M25.6593 13.291C25.4729 5.08924 21.3371 0.125 14 0.125C6.27982 0.125 1.16665 5.6034 1.16665 13.875C1.16665 14.0068 1.18595 14.1337 1.22123 14.253C0.46282 15.1421 0 16.3255 0 17.625C0 20.3866 2.08917 22.625 4.66665 22.625C4.73577 22.625 4.80309 22.6173 4.86888 22.605C5.64812 23.3918 6.69752 23.875 7.85307 23.875H8.53672C9.6209 23.875 10.5002 22.9329 10.5002 21.7712V13.4788C10.5002 12.3171 9.6209 11.375 8.53672 11.375H7.85307C6.69752 11.375 5.64812 11.8582 4.86888 12.645C4.80309 12.6327 4.73577 12.625 4.66665 12.625C4.27684 12.625 3.89851 12.677 3.53659 12.7734C3.95046 6.52314 7.91842 2.62502 14 2.62502C19.7722 2.62502 22.9453 6.16941 23.2996 12.6269C23.2423 12.6286 23.1861 12.6347 23.1311 12.645C22.3519 11.8582 21.3025 11.375 20.1469 11.375H19.4633C18.3791 11.375 17.4998 12.3171 17.4998 13.4788V21.7712C17.4998 22.9329 18.3791 23.875 19.4633 23.875H20.1469C21.3025 23.875 22.3519 23.3918 23.1311 22.605C23.1969 22.6173 23.2642 22.625 23.3334 22.625C25.9108 22.625 28 20.3866 28 17.625C28 15.7712 27.0579 14.1545 25.6593 13.291ZM3.5 19.7906C2.80252 19.3585 2.33335 18.5505 2.33335 17.625C2.33335 16.6995 2.80252 15.8916 3.5 15.4594V19.7906ZM5.83357 16.0388C5.83357 14.8436 6.73739 13.875 7.85307 13.875H8.16692V21.375H7.85307C6.73739 21.375 5.83357 20.4064 5.83357 19.2113V16.0388ZM22.1664 19.2113C22.1664 20.4064 21.2626 21.375 20.1469 21.375H19.8331V13.875H20.1469C21.2626 13.875 22.1664 14.8436 22.1664 16.0388V19.2113ZM24.5 19.7906V15.4594C25.1975 15.8916 25.6666 16.6995 25.6666 17.625C25.6666 18.5505 25.1975 19.3585 24.5 19.7906Z" fill="#C4C4C4"/>
</svg>
